<?xml version="1.0" standalone="no"?>
<!DOCTYPE svg PUBLIC "-//W3C//DTD SVG 20010904//EN"
 "http://www.w3.org/TR/2001/REC-SVG-20010904/DTD/svg10.dtd">
<svg version="1.0" xmlns="http://www.w3.org/2000/svg"
 width="259.000000pt" height="67.000000pt" viewBox="0 0 259.000000 67.000000"
 preserveAspectRatio="xMidYMid meet">

<g transform="translate(0.000000,67.000000) scale(0.100000,-0.100000)"
fill="#000000" stroke="none">
<path d="M265 658 c-73 -40 -49 -138 33 -138 78 0 98 106 25 139 -29 13 -33
13 -58 -1z"/>
<path d="M571 588 c-14 -43 -55 -82 -134 -127 -100 -57 -137 -119 -137 -228 0
-84 9 -91 40 -36 28 48 229 266 211 228 -5 -11 -47 -66 -93 -122 -88 -107
-131 -181 -144 -248 l-7 -39 34 39 c22 25 62 51 119 77 98 45 132 74 168 143
22 41 27 63 27 125 0 65 -5 85 -36 150 l-36 75 -12 -37z"/>
<path d="M840 384 c-59 -148 -80 -191 -105 -210 l-30 -24 75 1 c72 0 74 0 48
15 -32 17 -33 22 -14 69 l15 35 79 0 c75 0 79 -1 90 -25 17 -36 15 -75 -2 -75
-8 0 -18 -4 -21 -10 -4 -7 61 -10 187 -9 137 0 186 3 168 10 -13 6 -28 15 -32
22 -21 32 2 184 29 194 8 3 26 0 40 -6 30 -14 53 0 53 31 0 41 -87 39 -113 -3
-16 -26 -27 -24 -27 6 0 27 -8 29 -72 19 -44 -8 -47 -15 -15 -29 20 -9 22 -17
25 -113 3 -101 2 -102 -22 -112 -16 -6 -36 -6 -55 1 -34 12 -39 22 -131 247
-46 112 -67 152 -80 152 -12 0 -35 -46 -90 -186z m105 3 c14 -37 25 -72 25
-77 0 -10 -112 -14 -122 -4 -3 3 8 41 26 84 17 43 34 76 38 72 4 -4 18 -37 33
-75z"/>
<path d="M1517 476 c-9 -13 -30 -30 -47 -37 -35 -16 -38 -25 -10 -32 18 -5 20
-14 20 -114 0 -115 3 -123 37 -142 32 -17 68 -13 94 9 l24 20 -32 -6 c-44 -8
-53 14 -53 131 l0 96 30 6 c38 7 39 21 3 25 -23 2 -29 8 -31 36 -4 38 -14 41
-35 8z"/>
<path d="M2215 428 c-11 -6 -30 -20 -42 -31 l-23 -20 0 21 c0 29 -13 34 -65
26 -41 -6 -64 -24 -30 -24 25 0 35 -36 35 -130 0 -87 -1 -91 -25 -100 -14 -5
-25 -12 -25 -15 0 -3 42 -5 93 -5 88 1 91 1 60 15 -32 14 -33 16 -33 72 0 109
28 162 72 134 13 -8 24 -8 38 -1 29 15 25 48 -6 60 -30 12 -24 12 -49 -2z"/>
<path d="M2415 425 c-86 -31 -123 -115 -87 -198 23 -51 50 -72 104 -82 46 -9
90 1 123 26 35 28 21 43 -18 19 -58 -36 -109 -22 -133 35 -8 19 -14 46 -14 60
l0 25 100 0 c109 0 109 0 89 58 -19 56 -93 82 -164 57z m92 -41 c16 -25 16
-27 -3 -41 -22 -16 -95 -14 -101 3 -2 6 6 23 17 37 28 35 64 35 87 1z"/>
<path d="M1640 425 c0 -3 11 -10 25 -15 24 -9 25 -13 25 -98 0 -76 3 -94 23
-122 12 -19 35 -38 50 -43 37 -12 93 -1 117 23 19 19 20 19 26 -5 5 -19 12
-25 33 -24 33 1 83 17 59 18 -30 2 -38 36 -38 155 l0 116 -60 0 c-65 0 -74 -5
-35 -20 24 -9 25 -13 25 -90 0 -93 -17 -136 -56 -146 -19 -5 -32 -1 -47 15
-19 19 -22 35 -25 131 l-4 110 -59 0 c-32 0 -59 -2 -59 -5z"/>
</g>
</svg>
